<svg width="52" height="52" viewBox="0 0 52 52" fill="none" xmlns="http://www.w3.org/2000/svg">
<g opacity="0.25">
<path opacity="0.25" d="M25.8638 50.6836C39.3947 50.6836 50.3638 39.7146 50.3638 26.1836C50.3638 12.6526 39.3947 1.68359 25.8638 1.68359C12.3328 1.68359 1.36377 12.6526 1.36377 26.1836C1.36377 39.7146 12.3328 50.6836 25.8638 50.6836Z" stroke="#33A0FF" stroke-width="2"/>
</g>
<path fill-rule="evenodd" clip-rule="evenodd" d="M31.9178 29.1386C32.4318 29.1379 32.9297 28.9589 33.3265 28.6321C33.7233 28.3053 33.9945 27.851 34.0938 27.3466L35.2088 21.7736C35.2734 21.4506 35.2656 21.1173 35.1859 20.7977C35.1063 20.4781 34.9568 20.1802 34.7483 19.9252C34.5397 19.6703 34.2773 19.4647 33.9798 19.3234C33.6823 19.182 33.3572 19.1083 33.0278 19.1076H21.9278V17.9926C21.9275 17.6978 21.8105 17.415 21.6023 17.2062C21.3941 16.9975 21.1116 16.8797 20.8168 16.8786H18.6018C18.312 16.8873 18.037 17.0085 17.835 17.2166C17.6331 17.4246 17.5202 17.7032 17.5202 17.9931C17.5202 18.283 17.6331 18.5616 17.835 18.7697C18.037 18.9777 18.312 19.0989 18.6018 19.1076H19.7168V30.2526C19.2755 30.2506 18.8436 30.3797 18.4757 30.6234C18.1078 30.8671 17.8206 31.2145 17.6503 31.6216C17.4801 32.0288 17.4345 32.4772 17.5194 32.9103C17.6043 33.3433 17.8158 33.7415 18.1271 34.0542C18.4384 34.3669 18.8356 34.5802 19.2682 34.667C19.7009 34.7538 20.1496 34.7103 20.5575 34.5419C20.9653 34.3735 21.3141 34.0878 21.5594 33.721C21.8048 33.3542 21.9358 32.9229 21.9358 32.4816H29.7018C29.7036 32.9203 29.8353 33.3486 30.0803 33.7125C30.3253 34.0764 30.6726 34.3595 31.0785 34.5262C31.4843 34.6928 31.9303 34.7355 32.3604 34.6489C32.7904 34.5622 33.1851 34.35 33.4947 34.0392C33.8043 33.7284 34.0148 33.3328 34.0998 32.9024C34.1847 32.472 34.1402 32.0261 33.9719 31.621C33.8036 31.2158 33.5191 30.8696 33.1542 30.6261C32.7893 30.3826 32.3605 30.2526 31.9218 30.2526H21.9348V29.1386H31.9178ZM33.0328 21.3386L31.9178 26.9116H21.9308V21.3386H33.0308H33.0328Z" fill="#33A0FF"/>
</svg>
