<svg width="53" height="52" viewBox="0 0 53 52" fill="none" xmlns="http://www.w3.org/2000/svg">
  <g opacity="0.25">
    <path opacity="0.25" d="M26.3638 50.6836C40.1709 50.6836 51.3638 39.7146 51.3638 26.1836C51.3638 12.6526 40.1709 1.68359 26.3638 1.68359C12.5567 1.68359 1.36377 12.6526 1.36377 26.1836C1.36377 39.7146 12.5567 50.6836 26.3638 50.6836Z" stroke="#33A0FF" stroke-width="2" />
  </g>
  <path fill-rule="evenodd" clip-rule="evenodd" d="M29.2997 20.2216C29.9435 20.2223 30.5735 20.4088 31.1139 20.7587C31.6543 21.1087 32.0822 21.6072 32.3462 22.1945C32.6102 22.7817 32.699 23.4327 32.6021 24.0692C32.5052 24.7057 32.2265 25.3006 31.7997 25.7826C31.1867 26.4736 25.9597 31.3666 25.9597 31.3666C25.9597 31.3666 20.7217 26.4736 20.1087 25.7716C19.5675 25.1642 19.2698 24.3782 19.2727 23.5646C19.2879 22.6879 19.6468 21.8522 20.2721 21.2375C20.8975 20.6228 21.7393 20.2785 22.6162 20.2785C23.4931 20.2785 24.3348 20.6228 24.9602 21.2375C25.5856 21.8522 25.9445 22.6879 25.9597 23.5646C25.9597 23.1255 26.0462 22.6906 26.2142 22.2849C26.3823 21.8792 26.6286 21.5106 26.9391 21.2001C27.2497 20.8896 27.6183 20.6432 28.024 20.4752C28.4297 20.3071 28.8646 20.2207 29.3037 20.2207L29.2997 20.2216ZM29.3037 17.9916C28.0974 17.9895 26.9234 18.381 25.9597 19.1066C24.8557 18.2873 23.4878 17.9048 22.119 18.0329C20.7502 18.161 19.477 18.7905 18.5442 19.8005C17.6114 20.8104 17.0848 22.1295 17.0657 23.5042C17.0466 24.8789 17.5363 26.2121 18.4407 27.2476C19.0667 27.9656 23.1897 31.8256 24.4407 32.9916C24.8536 33.3778 25.3978 33.5926 25.9632 33.5926C26.5285 33.5926 27.0727 33.3778 27.4856 32.9916C28.7296 31.8266 32.8357 27.9767 33.4697 27.2597C34.181 26.4561 34.6452 25.4643 34.8065 24.4033C34.9678 23.3424 34.8194 22.2574 34.379 21.2788C33.9386 20.3001 33.2251 19.4694 32.324 18.8865C31.423 18.3036 30.3728 17.9932 29.2997 17.9926L29.3037 17.9916Z" fill="#33A0FF" />
</svg>